{
  "accessors": [
    {
      "bufferView": 2,
      "componentType": 5126,
      "count": 24610,
      "max": [
        0.9540702700614929,
        0.8760070204734802,
        0.9789166450500488
      ],
      "min": [
        -0.9540702700614929,
        -0.8839943408966064,
        -2.9118692874908447
      ],
      "type": "VEC3"
    },
    {
      "bufferView": 2,
      "byteOffset": 295320,
      "componentType": 5126,
      "count": 24610,
      "max": [
        0.9999843835830688,
        0.9999836683273315,
        0.9998854398727417
      ],
      "min": [
        -0.9999843835830688,
        -0.9996006488800049,
        -1.0
      ],
      "type": "VEC3"
    },
    {
      "bufferView": 1,
      "componentType": 5126,
      "count": 24610,
      "max": [
        0.8750002384185791,
        1.000000238418579
      ],
      "min": [
        0.125,
        0.0
      ],
      "type": "VEC2"
    },
    {
      "bufferView": 0,
      "componentType": 5125,
      "count": 129024,
      "type": "SCALAR"
    },
    {
      "bufferView": 2,
      "byteOffset": 590640,
      "componentType": 5126,
      "count": 1129,
      "max": [
        0.958333432674408,
        0.9737329483032227,
        1.0
      ],
      "min": [
        -0.958333432674408,
        -0.9429338574409485,
        -1.0
      ],
      "type": "VEC3"
    },
    {
      "bufferView": 2,
      "byteOffset": 604188,
      "componentType": 5126,
      "count": 1129,
      "max": [
        1.0,
        1.0,
        1.0
      ],
      "min": [
        -1.0,
        -1.0,
        -1.0
      ],
      "type": "VEC3"
    },
    {
      "bufferView": 1,
      "byteOffset": 196880,
      "componentType": 5126,
      "count": 1129,
      "max": [
        0.8750001192092896,
        1.0000001192092896
      ],
      "min": [
        0.125,
        0.0
      ],
      "type": "VEC2"
    },
    {
      "bufferView": 0,
      "byteOffset": 516096,
      "componentType": 5125,
      "count": 6144,
      "type": "SCALAR"
    },
    {
      "bufferView": 2,
      "byteOffset": 617736,
      "componentType": 5126,
      "count": 3221,
      "max": [
        0.9949363470077515,
        1.1059916019439697,
        0.9766923785209656
      ],
      "min": [
        -0.9943496584892273,
        -0.9989787936210632,
        -0.9990612864494324
      ],
      "type": "VEC3"
    },
    {
      "bufferView": 2,
      "byteOffset": 656388,
      "componentType": 5126,
      "count": 3221,
      "max": [
        1.0,
        0.9999891519546509,
        0.9999985694885254
      ],
      "min": [
        -1.0,
        -1.0,
        -0.9999983310699463
      ],
      "type": "VEC3"
    },
    {
      "bufferView": 1,
      "byteOffset": 205912,
      "componentType": 5126,
      "count": 3221,
      "max": [
        0.8750001192092896,
        1.0000001192092896
      ],
      "min": [
        0.1250000149011612,
        0.0
      ],
      "type": "VEC2"
    },
    {
      "bufferView": 0,
      "byteOffset": 540672,
      "componentType": 5125,
      "count": 17664,
      "type": "SCALAR"
    },
    {
      "bufferView": 2,
      "byteOffset": 695040,
      "componentType": 5126,
      "count": 2950,
      "max": [
        0.8851773142814636,
        0.2592548131942749,
        0.9968405961990356
      ],
      "min": [
        -0.8851773142814636,
        -0.321286678314209,
        -0.9449731707572937
      ],
      "type": "VEC3"
    },
    {
      "bufferView": 2,
      "byteOffset": 730440,
      "componentType": 5126,
      "count": 2950,
      "max": [
        0.9998875856399536,
        0.9989201426506042,
        0.9999998807907104
      ],
      "min": [
        -0.9998875856399536,
        -0.9999929666519165,
        -0.9999040365219116
      ],
      "type": "VEC3"
    },
    {
      "bufferView": 1,
      "byteOffset": 231680,
      "componentType": 5126,
      "count": 2950,
      "max": [
        0.8750001192092896,
        1.0000001192092896
      ],
      "min": [
        0.125,
        0.0
      ],
      "type": "VEC2"
    },
    {
      "bufferView": 0,
      "byteOffset": 611328,
      "componentType": 5125,
      "count": 16128,
      "type": "SCALAR"
    },
    {
      "bufferView": 2,
      "byteOffset": 765840,
      "componentType": 5126,
      "count": 3689,
      "max": [
        1.1175457239151,
        1.1348377466201782,
        1.2070355415344238
      ],
      "min": [
        -1.1265835762023926,
        -1.1365066766738892,
        -1.1389994621276855
      ],
      "type": "VEC3"
    },
    {
      "bufferView": 2,
      "byteOffset": 810108,
      "componentType": 5126,
      "count": 3689,
      "max": [
        0.9998853802680969,
        0.9999322295188904,
        0.9999547004699707
      ],
      "min": [
        -0.9999809265136719,
        -0.9996395111083984,
        -0.9999884963035583
      ],
      "type": "VEC3"
    },
    {
      "bufferView": 3,
      "componentType": 5126,
      "count": 3689,
      "max": [
        0.9999639987945557,
        0.695146918296814,
        0.9999676942825317,
        1.0
      ],
      "min": [
        -0.9999999403953552,
        -0.7095164060592651,
        -0.6115255951881409,
        1.0
      ],
      "type": "VEC4"
    },
    {
      "bufferView": 1,
      "byteOffset": 255280,
      "componentType": 5126,
      "count": 3689,
      "max": [
        0.8750001192092896,
        1.0000001192092896
      ],
      "min": [
        0.125,
        0.0
      ],
      "type": "VEC2"
    },
    {
      "bufferView": 1,
      "byteOffset": 284792,
      "componentType": 5126,
      "count": 3689,
      "max": [
        0.8750001192092896,
        1.0000001192092896
      ],
      "min": [
        0.125,
        0.0
      ],
      "type": "VEC2"
    },
    {
      "bufferView": 0,
      "byteOffset": 675840,
      "componentType": 5125,
      "count": 19968,
      "type": "SCALAR"
    },
    {
      "bufferView": 2,
      "byteOffset": 854376,
      "componentType": 5126,
      "count": 4755,
      "max": [
        5.316525936126709,
        1.130803108215332,
        2.367459297180176
      ],
      "min": [
        -5.316526412963867,
        -0.8755371570587158,
        -2.0844318866729736
      ],
      "type": "VEC3"
    },
    {
      "bufferView": 2,
      "byteOffset": 911436,
      "componentType": 5126,
      "count": 4755,
      "max": [
        0.9999357461929321,
        0.9999949932098389,
        0.9999958872795105
      ],
      "min": [
        -0.9999358654022217,
        -0.9999629259109497,
        -0.9999961256980896
      ],
      "type": "VEC3"
    },
    {
      "bufferView": 3,
      "byteOffset": 59024,
      "componentType": 5126,
      "count": 4755,
      "max": [
        0.9999914169311523,
        0.9999971985816956,
        0.997272253036499,
        1.0
      ],
      "min": [
        -0.9999874234199524,
        -0.9999953508377075,
        -0.9999810457229614,
        -1.0
      ],
      "type": "VEC4"
    },
    {
      "bufferView": 1,
      "byteOffset": 314304,
      "componentType": 5126,
      "count": 4755,
      "max": [
        0.5000000596046448,
        1.0000001192092896
      ],
      "min": [
        0.0,
        0.0
      ],
      "type": "VEC2"
    },
    {
      "bufferView": 1,
      "byteOffset": 352344,
      "componentType": 5126,
      "count": 4755,
      "max": [
        0.5000000596046448,
        1.0000001192092896
      ],
      "min": [
        0.0,
        0.0
      ],
      "type": "VEC2"
    },
    {
      "bufferView": 0,
      "byteOffset": 755712,
      "componentType": 5125,
      "count": 26112,
      "type": "SCALAR"
    }
  ],
  "asset": {
    "extras": {
      "author": "gaelinix (https://sketchfab.com/gaelinix)",
      "license": "CC-BY-4.0 (http://creativecommons.org/licenses/by/4.0/)",
      "source": "https://sketchfab.com/3d-models/amongus-sexy-female-486661871ca94f95b19e902cc104312a",
      "title": "Amongus Sexy Female"
    },
    "generator": "Sketchfab-12.65.0",
    "version": "2.0"
  },
  "bufferViews": [
    {
      "buffer": 0,
      "byteLength": 860160,
      "name": "floatBufferViews",
      "target": 34963
    },
    {
      "buffer": 0,
      "byteLength": 390384,
      "byteOffset": 860160,
      "byteStride": 8,
      "name": "floatBufferViews",
      "target": 34962
    },
    {
      "buffer": 0,
      "byteLength": 968496,
      "byteOffset": 1250544,
      "byteStride": 12,
      "name": "floatBufferViews",
      "target": 34962
    },
    {
      "buffer": 0,
      "byteLength": 135104,
      "byteOffset": 2219040,
      "byteStride": 16,
      "name": "floatBufferViews",
      "target": 34962
    }
  ],
  "buffers": [
    {
      "byteLength": 2354144,
      "uri": "scene.bin"
    }
  ],
  "images": [
    {
      "uri": "textures/Material.008_normal.png"
    }
  ],
  "materials": [
    {
      "doubleSided": true,
      "name": "Material.001",
      "pbrMetallicRoughness": {
        "baseColorFactor": [
          0.8,
          0.483311,
          0.696741,
          1.0
        ],
        "metallicFactor": 0.0,
        "roughnessFactor": 0.8270692628247784
      }
    },
    {
      "doubleSided": true,
      "name": "Material.002",
      "pbrMetallicRoughness": {
        "baseColorFactor": [
          0.191423,
          0.657477,
          0.8,
          1.0
        ],
        "metallicFactor": 0.0,
        "roughnessFactor": 0.8229120276315081
      }
    },
    {
      "doubleSided": true,
      "name": "Material.003",
      "pbrMetallicRoughness": {
        "baseColorFactor": [
          0.8,
          0.161333,
          0.353443,
          1.0
        ],
        "metallicFactor": 0.0,
        "roughnessFactor": 0.906862000672338
      }
    },
    {
      "doubleSided": true,
      "name": "Material.005",
      "pbrMetallicRoughness": {
        "baseColorFactor": [
          0.0,
          0.0,
          0.0,
          1.0
        ],
        "metallicFactor": 0.0
      }
    },
    {
      "doubleSided": true,
      "name": "Material.008",
      "normalTexture": {
        "index": 0
      },
      "pbrMetallicRoughness": {
        "baseColorFactor": [
          0.31169,
          0.0599267,
          0.102604,
          1.0
        ],
        "metallicFactor": 0.0,
        "roughnessFactor": 0.9739424561747226
      }
    },
    {
      "doubleSided": true,
      "name": "Material.007",
      "normalTexture": {
        "index": 0
      },
      "pbrMetallicRoughness": {
        "baseColorFactor": [
          0.8,
          0.0919985,
          0.240721,
          1.0
        ],
        "metallicFactor": 0.0,
        "roughnessFactor": 0.9433699274913874
      }
    }
  ],
  "meshes": [
    {
      "name": "Cube_Material.001_0",
      "primitives": [
        {
          "attributes": {
            "NORMAL": 1,
            "POSITION": 0,
            "TEXCOORD_0": 2
          },
          "indices": 3,
          "material": 0,
          "mode": 4
        }
      ]
    },
    {
      "name": "Cube.001_Material.002_0",
      "primitives": [
        {
          "attributes": {
            "NORMAL": 5,
            "POSITION": 4,
            "TEXCOORD_0": 6
          },
          "indices": 7,
          "material": 1,
          "mode": 4
        }
      ]
    },
    {
      "name": "Cube.002_Material.003_0",
      "primitives": [
        {
          "attributes": {
            "NORMAL": 9,
            "POSITION": 8,
            "TEXCOORD_0": 10
          },
          "indices": 11,
          "material": 2,
          "mode": 4
        }
      ]
    },
    {
      "name": "Cube.003_Material.005_0",
      "primitives": [
        {
          "attributes": {
            "NORMAL": 13,
            "POSITION": 12,
            "TEXCOORD_0": 14
          },
          "indices": 15,
          "material": 3,
          "mode": 4
        }
      ]
    },
    {
      "name": "Cube.004_Material.008_0",
      "primitives": [
        {
          "attributes": {
            "NORMAL": 17,
            "POSITION": 16,
            "TANGENT": 18,
            "TEXCOORD_0": 19,
            "TEXCOORD_1": 20
          },
          "indices": 21,
          "material": 4,
          "mode": 4
        }
      ]
    },
    {
      "name": "Cube.004_Material.007_0",
      "primitives": [
        {
          "attributes": {
            "NORMAL": 23,
            "POSITION": 22,
            "TANGENT": 24,
            "TEXCOORD_0": 25,
            "TEXCOORD_1": 26
          },
          "indices": 27,
          "material": 5,
          "mode": 4
        }
      ]
    }
  ],
  "nodes": [
    {
      "children": [
        1
      ],
      "matrix": [
        1.0,
        0.0,
        0.0,
        0.0,
        0.0,
        2.220446049250313e-16,
        -1.0,
        0.0,
        0.0,
        1.0,
        2.220446049250313e-16,
        0.0,
        0.0,
        0.0,
        0.0,
        1.0
      ],
      "name": "Sketchfab_model"
    },
    {
      "children": [
        2
      ],
      "matrix": [
        0.009999999776482582,
        0.0,
        0.0,
        0.0,
        0.0,
        0.0,
        0.009999999776482582,
        0.0,
        0.0,
        -0.009999999776482582,
        0.0,
        0.0,
        0.0,
        0.0,
        0.0,
        1.0
      ],
      "name": "6b8fac8a9d714f1eba460e476900d750.fbx"
    },
    {
      "children": [
        3,
        5,
        7,
        9,
        11
      ],
      "name": "RootNode"
    },
    {
      "children": [
        4
      ],
      "matrix": [
        100.0,
        0.0,
        0.0,
        0.0,
        0.0,
        -1.629206793918314e-05,
        -99.99999999999868,
        0.0,
        0.0,
        99.99999999999868,
        -1.629206793918314e-05,
        0.0,
        0.0,
        0.0,
        0.0,
        1.0
      ],
      "name": "Cube"
    },
    {
      "mesh": 0,
      "name": "Cube_Material.001_0"
    },
    {
      "children": [
        6
      ],
      "matrix": [
        51.72306442260742,
        3.874537826729224e-16,
        -6.5374053971644745e-18,
        0.0,
        2.0587295629556045e-18,
        -0.5494996581936652,
        -16.27892303838042,
        0.0,
        -1.9935588869726208e-16,
        26.597825445031848,
        -0.897817131777156,
        0.0,
        -1.1901617050170898,
        25.027359008789063,
        65.90888214111328,
        1.0
      ],
      "name": "Cube.001"
    },
    {
      "mesh": 1,
      "name": "Cube.001_Material.002_0"
    },
    {
      "children": [
        8
      ],
      "matrix": [
        47.72404861450195,
        -1.145662594173762e-15,
        -6.211269810759097e-17,
        0.0,
        2.6867321706602427e-17,
        2.2318263690696654,
        -20.522415855424214,
        0.0,
        1.650110814655882e-15,
        68.3345889486864,
        7.43143198196645,
        0.0,
        0.0,
        0.0,
        -59.7966423034668,
        1.0
      ],
      "name": "Cube.002"
    },
    {
      "mesh": 2,
      "name": "Cube.002_Material.003_0"
    },
    {
      "children": [
        10
      ],
      "matrix": [
        63.325286865234375,
        1.9498632126256177e-15,
        -1.3585161686792435e-16,
        0.0,
        1.3585153398282776e-16,
        -8.781417505466043,
        -62.71346476761526,
        0.0,
        -9.557954490770362e-16,
        30.74125592764034,
        -4.304527009363922,
        0.0,
        0.0,
        24.635955810546875,
        55.04930114746094,
        1.0
      ],
      "name": "Cube.003"
    },
    {
      "mesh": 3,
      "name": "Cube.003_Material.005_0"
    },
    {
      "children": [
        12,
        13
      ],
      "matrix": [
        8.31906371862185,
        1.5983167314285358,
        -1.525508689917538,
        0.0,
        -0.012566442544950252,
        -4.4996840276722825,
        -4.7829693478918225,
        0.0,
        -2.2094166273215343,
        6.062073009787121,
        -5.697224173436948,
        0.0,
        -11.485312461853027,
        82.75714111328125,
        48.86008071899414,
        1.0
      ],
      "name": "Cube.004"
    },
    {
      "mesh": 4,
      "name": "Cube.004_Material.008_0"
    },
    {
      "mesh": 5,
      "name": "Cube.004_Material.007_0"
    }
  ],
  "samplers": [
    {
      "magFilter": 9729,
      "minFilter": 9987,
      "wrapS": 10497,
      "wrapT": 10497
    }
  ],
  "scene": 0,
  "scenes": [
    {
      "name": "Sketchfab_Scene",
      "nodes": [
        0
      ]
    }
  ],
  "textures": [
    {
      "sampler": 0,
      "source": 0
    }
  ]
}
